<svg xmlns="http://www.w3.org/2000/svg" viewBox="45 12 210 205">
<path fill="#EAEAEA" d="m138.126 120.83.279-.014.292.275c-.05.123-57.935 58.408-62.47 62.584-.192-.046-.284-.197-.422-.333-.152-2.333.102-4.714.175-7.049.128-4.977.307-9.951.535-14.924l1.411-38.559c7.094.325 14.248-.37 21.341-.626l38.86-1.354ZM221.35 42.904c.639.978.4 3.062.388 4.232-.056 5.075-.516 10.166-.702 15.241a1888.892 1888.892 0 0 0-1.379 41.71c-7.276-.092-14.498.387-21.764.632-12.954.346-25.905.832-38.848 1.456-.118-.112-.104-.24-.133-.395 2.072-2.587 4.747-4.806 7.109-7.126 2.82-2.77 5.512-5.68 8.297-8.487l30.715-30.798c5.458-5.462 11.144-10.728 16.317-16.465ZM78.177 40.144c5.893.822 14.207.69 20.37.906l40.754 1.41a3034.59 3034.59 0 0 1 2.072 60.79c-2.675-1.167-10.283-10.066-12.838-12.636L92.222 54.206a546.144 546.144 0 0 0-7.741-7.684c-2.074-1.995-4.618-4.048-6.304-6.378ZM156.114 123.762c3.537 2.3 8.177 7.626 11.317 10.769l21.253 21.288 20.347 20.396c3.384 3.394 7.273 6.755 10.252 10.485-20.354-1.083-40.737-1.485-61.1-2.35-.093-16.879-1.15-33.775-1.524-50.659-.06-2.682-.978-7.583-.545-9.929ZM91.687 70.23c.537.039.91.278 1.32.613 3.913 3.202 7.522 7.005 11.188 10.495l18.265 17.116c4.83 4.539 9.535 9.237 14.71 13.386-5.487-.298-11.079-.167-16.578-.177l-27.85-.003c-15.22-.073-30.44-.024-45.66.149 7.67-6.796 15.004-13.994 22.518-20.963 7.388-6.852 14.97-13.475 22.087-20.615ZM150.456 12.25c3.558 2.306 8.02 7.91 11.048 11.18l19.408 21.153c3.776 4.092 7.5 8.344 11.581 12.128-3.626 2.423-6.424 6.253-9.35 9.464a953.833 953.833 0 0 1-12.368 13.363c-6.956 7.376-13.868 14.747-20.652 22.283.722-4.586.452-9.263.414-13.89l-.02-15.643c.112-20.013.092-40.026-.061-60.038ZM160.44 115.094c6.786.233 13.605.091 20.395.088l34.997-.017c8.014-.001 16.023.19 24.037.114 3.363-.032 6.788.077 10.134-.248-.028.127-.03.174-.078.288-.352.836-19.242 18.526-20.952 19.262-.353.933-20.582 19.69-23.356 22.497-2.09-2.471-4.675-4.622-7.064-6.8a906.764 906.764 0 0 1-9.607-8.877c-9.423-8.775-18.638-18.057-28.506-26.307ZM146.439 125.694c.062.027.128.046.185.083.56.374.526 3.917.543 4.643.116 4.776-.018 9.575-.015 14.353.017 23.489-.82 47.037.076 70.511a1221.597 1221.597 0 0 0-19.85-21.297l-12.355-13.418c-3.248-3.527-6.423-7.129-10.061-10.265 3.42-2.638 6.127-6.078 9.043-9.245l12.266-13.17c4.353-4.69 8.83-9.26 13.163-13.97 2.416-2.627 4.99-5.275 7.005-8.225ZM148.695 106.018c3.865-.381 7.311 2.44 7.71 6.312.4 3.872-2.398 7.34-6.259 7.758-3.888.423-7.377-2.405-7.78-6.303-.401-3.9 2.437-7.382 6.33-7.767Z"/>
</svg>